<?xml version="1.0" standalone="no"?>
<!DOCTYPE svg PUBLIC "-//W3C//DTD SVG 20010904//EN"
 "http://www.w3.org/TR/2001/REC-SVG-20010904/DTD/svg10.dtd">
<svg version="1.0" xmlns="http://www.w3.org/2000/svg"
 width="512.000000pt" height="512.000000pt" viewBox="0 0 512.000000 512.000000"
 preserveAspectRatio="xMidYMid meet">

<g transform="translate(0.000000,512.000000) scale(0.100000,-0.100000)"
fill="white" stroke="none">
<path d="M1417 5106 c-92 -33 -164 -109 -188 -201 -8 -26 -9 -124 -6 -285 6
-270 19 -359 78 -527 60 -170 138 -302 298 -503 54 -68 93 -127 96 -145 2 -16
18 -191 35 -388 l31 -357 -79 -128 c-106 -169 -126 -226 -120 -358 4 -91 8
-110 40 -176 65 -136 207 -247 340 -264 26 -4 49 -7 49 -8 1 0 16 -350 34
-776 31 -760 32 -776 56 -824 51 -108 159 -172 274 -163 125 9 230 98 255 215
5 20 14 166 20 325 13 323 13 324 -57 353 -31 14 -38 13 -71 -3 -49 -24 -62
-53 -62 -140 l0 -73 -99 0 -99 0 -6 72 c-3 40 -13 267 -21 503 -8 237 -17 454
-19 483 l-5 54 146 69 c80 38 146 69 147 69 0 0 0 -58 -2 -129 -3 -126 -3
-129 23 -160 22 -25 34 -31 67 -31 80 0 108 42 108 162 0 40 3 116 6 169 l7
96 64 32 c35 17 72 31 82 31 11 0 173 -70 361 -156 279 -127 353 -157 400
-161 170 -16 315 132 297 304 -7 65 -49 145 -96 182 -50 39 -711 409 -780 437
-74 30 -182 47 -248 38 l-54 -6 7 28 c3 16 14 63 24 104 10 41 21 88 24 103
l7 28 72 -73 c109 -110 155 -129 470 -195 197 -41 275 -53 314 -50 148 15 256
131 257 277 0 108 -57 205 -148 252 -22 11 -127 40 -233 63 -107 24 -196 45
-197 47 -127 171 -287 365 -328 398 -62 50 -177 108 -230 116 -21 4 -38 9 -38
11 0 3 16 37 34 76 134 278 -13 594 -311 672 -208 54 -440 -52 -537 -247 l-35
-68 -21 57 c-37 99 -49 172 -59 370 -12 227 -24 267 -103 338 -76 69 -182 92
-271 61z m136 -206 c31 -24 34 -43 42 -257 l6 -151 -50 -11 c-28 -6 -69 -14
-91 -17 l-40 -7 0 197 c0 199 4 226 39 253 24 19 65 15 94 -7z m869 -506 c146
-49 223 -227 159 -369 -27 -60 -61 -98 -121 -133 -39 -24 -56 -27 -130 -27
-99 0 -144 19 -203 84 -52 58 -70 104 -70 186 -1 57 4 80 26 121 64 126 207
184 339 138z m-762 -118 c0 -22 77 -170 121 -233 24 -34 92 -113 152 -177 172
-184 227 -206 514 -206 201 0 261 -9 343 -50 72 -37 117 -83 245 -251 l106
-139 -52 -87 c-28 -49 -53 -90 -56 -93 -2 -3 -64 57 -136 133 -125 130 -134
137 -170 137 -29 0 -46 -7 -66 -27 -23 -24 -34 -58 -76 -238 -26 -115 -52
-225 -57 -243 l-9 -32 -282 2 -282 3 -32 370 c-18 204 -35 379 -37 391 -3 11
-53 81 -112 155 -134 169 -171 224 -223 326 -40 81 -96 231 -88 239 7 7 182
41 190 37 4 -2 7 -10 7 -17z m1826 -1200 c171 -38 187 -44 203 -84 15 -36 2
-75 -35 -98 -26 -17 -33 -17 -219 20 -105 21 -197 41 -202 44 -15 10 68 151
88 152 9 0 83 -15 165 -34z m-1263 -545 c-60 -29 -86 -47 -97 -70 -20 -37 -20
-45 -1 -86 17 -34 50 -55 90 -55 14 0 130 47 259 105 130 59 258 110 290 116
67 12 144 0 208 -32 87 -44 349 -192 354 -200 6 -11 -67 -150 -82 -156 -6 -2
-87 31 -180 73 -244 111 -203 117 -626 -92 -338 -167 -340 -168 -406 -168
-154 1 -261 102 -270 256 -5 85 3 107 86 240 l67 108 195 0 195 -1 -82 -38z
m1419 -398 c63 -39 75 -87 33 -128 -33 -34 -59 -32 -160 15 l-87 40 38 67 c20
38 39 71 41 76 4 7 48 -16 135 -70z m-1219 -1755 c-5 -119 -15 -151 -49 -167
-37 -17 -60 -14 -91 13 -27 24 -28 27 -31 140 l-4 116 90 0 90 0 -5 -102z"/>
<path d="M2533 1353 c-35 -7 -73 -59 -73 -100 0 -80 109 -125 165 -69 72 72 9
188 -92 169z"/>
</g>
</svg>
